<?xml version="1.0" encoding="utf-8"?>
<svg xmlns="http://www.w3.org/2000/svg" width="151" height="16" viewBox="0 0 151 16">
<path d="M3.26763 10.5477C3.26763 11.1321 3.39094 11.6341 3.63755 12.0466C3.88416 12.4592 4.21983 12.7961 4.65826 13.0643C5.09668 13.3255 5.59676 13.5181 6.16534 13.6418C6.73392 13.7656 7.3436 13.8206 8.00809 13.8206C8.72053 13.8206 9.33021 13.7519 9.83714 13.6143C10.3441 13.4768 10.7551 13.3049 11.0702 13.0918C11.3853 12.8786 11.6114 12.6311 11.7484 12.3492C11.8854 12.0741 11.9608 11.7922 11.9608 11.5034C11.9608 10.919 11.7963 10.4858 11.4744 10.2108C11.1524 9.93572 10.7962 9.73631 10.4126 9.6263C9.74808 9.4269 8.98084 9.23437 8.09714 9.06247C7.21344 8.8837 6.13109 8.64992 4.83636 8.368C4.03487 8.19611 3.36353 7.9692 2.83606 7.69416C2.30173 7.41913 1.88385 7.10283 1.56874 6.76591C1.25362 6.42212 1.03441 6.05769 0.90425 5.67264C0.774092 5.28759 0.705589 4.88878 0.705589 4.49686C0.705589 3.72675 0.904249 3.05979 1.29472 2.49596C1.68519 1.93214 2.20582 1.46457 2.84976 1.09327C3.49369 0.721972 4.22668 0.446935 5.04873 0.268161C5.87077 0.0893871 6.69967 0 7.53541 0C8.51502 0 9.43297 0.103139 10.2961 0.309417C11.1593 0.515695 11.9197 0.825111 12.5704 1.23767C13.2212 1.65022 13.7419 2.16592 14.1255 2.771C14.5091 3.37608 14.7009 4.07743 14.7009 4.87503H11.4333C11.3442 3.89178 10.9332 3.19731 10.2002 2.79163C9.46722 2.38595 8.53557 2.17967 7.39841 2.17967C7.01478 2.17967 6.62431 2.21405 6.22014 2.27593C5.81597 2.33782 5.4529 2.44783 5.12408 2.5991C4.79526 2.75037 4.52125 2.94977 4.30204 3.21106C4.08282 3.46547 3.97322 3.78864 3.97322 4.17369C3.97322 4.71689 4.17873 5.13632 4.58975 5.44573C5.00077 5.75515 5.54195 5.98206 6.19959 6.1402C6.26809 6.15396 6.54211 6.21584 7.02163 6.32585C7.50116 6.42899 8.03549 6.55276 8.63147 6.67653C9.22746 6.80717 9.80289 6.93094 10.3715 7.04783C10.94 7.17159 11.3442 7.26098 11.5908 7.31599C12.2005 7.47413 12.7348 7.68729 13.187 7.95545C13.6391 8.23049 14.0227 8.5399 14.3241 8.8837C14.6324 9.23437 14.8585 9.60567 15.0023 10.0114C15.153 10.4102 15.2215 10.809 15.2215 11.2078C15.2215 12.0673 15.0092 12.7961 14.5776 13.4012C14.1529 14.0063 13.5843 14.5013 12.8924 14.8864C12.1937 15.2714 11.399 15.5533 10.5085 15.7321C9.61793 15.9109 8.71368 16.0003 7.78888 16.0003C6.72707 16.0003 5.72006 15.8903 4.78156 15.6771C3.83621 15.464 3.02102 15.1339 2.32228 14.6939C1.62354 14.2538 1.06866 13.6831 0.650786 12.9955C0.232913 12.3079 0.0205511 11.4897 0 10.5477H3.26763Z" fill="#2D2E2C"/>
<path d="M58.919 10.5477C58.919 11.1321 59.0423 11.6341 59.2889 12.0466C59.5355 12.4592 59.8712 12.7961 60.3096 13.0643C60.7481 13.3255 61.2481 13.5181 61.8167 13.6418C62.3853 13.7656 62.995 13.8206 63.6595 13.8206C64.3719 13.8206 64.9816 13.7519 65.4885 13.6143C65.9954 13.4768 66.4065 13.3049 66.7216 13.0918C67.0367 12.8786 67.2628 12.6311 67.3998 12.3492C67.5368 12.0741 67.6121 11.7922 67.6121 11.5034C67.6121 10.919 67.4477 10.4858 67.1257 10.2108C66.8038 9.93572 66.4476 9.73631 66.0639 9.6263C65.3995 9.4269 64.6322 9.23437 63.7485 9.06247C62.8648 8.8837 61.7825 8.64992 60.4877 8.368C59.6862 8.19611 59.0149 7.9692 58.4874 7.69416C57.9531 7.41913 57.5352 7.10283 57.2201 6.76591C56.905 6.42212 56.6858 6.05769 56.5556 5.67264C56.4255 5.28759 56.357 4.89566 56.357 4.49686C56.357 3.72675 56.5556 3.05979 56.9461 2.49596C57.3366 1.93214 57.8572 1.46457 58.5011 1.09327C59.1451 0.721972 59.8781 0.446935 60.7001 0.268161C61.5221 0.0893871 62.351 0 63.1868 0C64.1664 0 65.0843 0.103139 65.9475 0.309417C66.8106 0.515695 67.571 0.825111 68.2218 1.23767C68.8726 1.65022 69.3932 2.16592 69.7768 2.771C70.1605 3.37608 70.3523 4.07743 70.3523 4.87503H67.0846C66.9956 3.89178 66.5846 3.19731 65.8516 2.79163C65.1186 2.38595 64.1869 2.17967 63.0498 2.17967C62.6662 2.17967 62.2757 2.21405 61.8715 2.27593C61.4673 2.33782 61.1043 2.44783 60.7755 2.5991C60.4466 2.75037 60.1658 2.94977 59.9534 3.21106C59.7342 3.46547 59.6246 3.78864 59.6246 4.17369C59.6246 4.71689 59.8301 5.13632 60.2411 5.44573C60.6521 5.75515 61.1865 5.98206 61.851 6.1402C61.9195 6.15396 62.1935 6.21584 62.673 6.32585C63.1525 6.42899 63.6869 6.55276 64.2828 6.67653C64.8788 6.80717 65.4543 6.93094 66.0228 7.04783C66.5914 7.17159 66.9956 7.26098 67.2422 7.31599C67.8519 7.47413 68.3862 7.68729 68.8383 7.95545C69.2905 8.23049 69.6741 8.5399 69.9755 8.8837C70.2838 9.23437 70.5098 9.60567 70.6537 10.0114C70.8044 10.4102 70.8729 10.809 70.8729 11.2078C70.8729 12.0673 70.6605 12.7961 70.229 13.4012C69.8042 14.0063 69.2357 14.5013 68.5438 14.8864C67.845 15.2714 67.0504 15.5533 66.1598 15.7321C65.2693 15.9109 64.365 16.0003 63.4402 16.0003C62.3784 16.0003 61.3714 15.8903 60.4329 15.6771C59.4876 15.464 58.6724 15.1339 57.9737 14.6939C57.2749 14.2538 56.72 13.6831 56.3022 12.9955C55.8843 12.301 55.6651 11.4897 55.6445 10.5477H58.919Z" fill="#2D2E2C"/>
<path d="M17.25 0.364502H20.3601V9.26883C20.3601 9.78452 20.3875 10.3002 20.4491 10.8297C20.5039 11.3591 20.6752 11.8336 20.9492 12.253C21.2232 12.6724 21.6342 13.0231 22.196 13.2912C22.7509 13.5594 23.5386 13.6969 24.5456 13.6969C25.5595 13.6969 26.3404 13.5594 26.8953 13.2912C27.4502 13.0231 27.8681 12.6724 28.1421 12.253C28.4161 11.8336 28.5805 11.3591 28.6422 10.8297C28.697 10.3002 28.7312 9.77765 28.7312 9.26883V0.364502H31.8413V10.1421C31.8413 11.1253 31.67 11.9848 31.3207 12.7068C30.9713 13.4356 30.4781 14.0476 29.841 14.5358C29.2039 15.0309 28.4367 15.3953 27.5393 15.6359C26.6419 15.8766 25.6486 16.0004 24.5525 16.0004C23.4564 16.0004 22.4631 15.8835 21.5657 15.6359C20.6683 15.3953 19.9011 15.024 19.264 14.5358C18.6269 14.0476 18.1337 13.4356 17.7843 12.7068C17.435 11.9779 17.2637 11.1253 17.2637 10.1421V0.364502H17.25Z" fill="#2D2E2C"/>
<path d="M35.4375 0.364502H38.5476V15.6428H35.4375V0.364502Z" fill="#2D2E2C"/>
<path d="M40.6836 0.364502H55.0762V2.67481H49.4247V15.6428H46.3078V2.67481H40.6836V0.364502Z" fill="#2D2E2C"/>
<path d="M73.7031 0.364563H76.8132V9.26889C76.8132 9.78458 76.8406 10.3003 76.9023 10.8297C76.9571 11.3592 77.1283 11.8336 77.4023 12.253C77.6763 12.6725 78.0942 13.0231 78.6491 13.2913C79.204 13.5595 79.9918 13.697 80.9988 13.697C82.0126 13.697 82.7936 13.5595 83.3485 13.2913C83.9033 13.0231 84.3212 12.6725 84.5952 12.253C84.8693 11.8336 85.0337 11.3592 85.0953 10.8297C85.1501 10.3003 85.1844 9.77771 85.1844 9.26889V0.364563H88.2944V10.1421C88.2944 11.1254 88.1232 11.9849 87.7738 12.7069C87.4244 13.4357 86.9312 14.0477 86.2941 14.5359C85.657 15.0309 84.8898 15.3953 83.9924 15.636C83.095 15.8767 82.1017 16.0004 81.0056 16.0004C79.9096 16.0004 78.9163 15.8835 78.0189 15.636C77.1215 15.3953 76.3542 15.024 75.7171 14.5359C75.08 14.0477 74.5868 13.4357 74.2375 12.7069C73.8881 11.978 73.7168 11.1254 73.7168 10.1421V0.364563H73.7031Z" fill="#2D2E2C"/>
<path d="M92.5078 0.364563H100.351C101.612 0.364563 102.64 0.522709 103.441 0.839002C104.236 1.1553 104.852 1.54722 105.284 2.01479C105.715 2.48923 106.01 2.99804 106.167 3.555C106.325 4.11195 106.407 4.62764 106.407 5.0952C106.407 5.56964 106.325 6.07846 106.167 6.62166C106.01 7.17173 105.715 7.68055 105.284 8.15499C104.852 8.62256 104.236 9.01448 103.441 9.3239C102.646 9.63332 101.612 9.78459 100.351 9.78459H95.6179V15.6498H92.5078V0.364563ZM95.6179 7.59804H100.173C100.523 7.59804 100.879 7.55679 101.242 7.4674C101.605 7.37801 101.941 7.24049 102.249 7.04797C102.557 6.85544 102.804 6.60103 102.996 6.27786C103.188 5.95469 103.283 5.55589 103.283 5.0677C103.283 4.56576 103.201 4.1532 103.037 3.83003C102.872 3.49999 102.646 3.2387 102.365 3.04618C102.085 2.85365 101.763 2.72301 101.393 2.64737C101.03 2.57861 100.639 2.53736 100.221 2.53736H95.6179V7.59804Z" fill="#2D2E2C"/>
<path d="M109.102 0.364563H116.945C118.206 0.364563 119.233 0.522709 120.035 0.839002C120.829 1.1553 121.446 1.54722 121.878 2.01479C122.309 2.48923 122.604 2.99804 122.761 3.555C122.919 4.11195 123.001 4.62764 123.001 5.0952C123.001 5.56964 122.919 6.07846 122.761 6.62166C122.604 7.17173 122.309 7.68055 121.878 8.15499C121.446 8.62256 120.829 9.01448 120.035 9.3239C119.24 9.63332 118.206 9.78459 116.945 9.78459H112.212V15.6498H109.102V0.364563ZM112.218 7.59804H116.774C117.123 7.59804 117.48 7.55679 117.843 7.4674C118.206 7.37801 118.541 7.24049 118.85 7.04797C119.158 6.85544 119.405 6.60103 119.596 6.27786C119.788 5.95469 119.884 5.55589 119.884 5.0677C119.884 4.56576 119.802 4.1532 119.637 3.83003C119.473 3.49999 119.247 3.2387 118.966 3.04618C118.685 2.85365 118.363 2.72301 117.993 2.64737C117.63 2.57861 117.24 2.53736 116.822 2.53736H112.218V7.59804Z" fill="#2D2E2C"/>
<path d="M125.699 0.364563H128.809V13.3326H137.845V15.6429H125.699V0.364563Z" fill="#2D2E2C"/>
<path d="M141.239 9.64595L134.566 0.356567H138.177L142.883 7.20499L147.514 0.356567H151L144.356 9.64595V15.6349H141.246V9.64595H141.239Z" fill="#2D2E2C"/>
</svg>
